<?xml version="1.0" encoding="utf-8"?>
<svg width="372px" height="396px" viewBox="0 0 372 396" version="1.1" xmlns:xlink="http://www.w3.org/1999/xlink" xmlns="http://www.w3.org/2000/svg">
  <desc>Created with Lunacy</desc>
  <g id="calendar-mini">
    <path d="M326 30.9492L275.078 30.9492L275.078 6C275.078 2.6875 272.391 0 269.078 0C265.766 0 263.078 2.6875 263.078 6L263.078 30.9492L108.926 30.9492L108.926 6C108.926 2.6875 106.238 0 102.926 0C99.6094 0 96.9258 2.6875 96.9258 6L96.9258 30.9492L46 30.9492C20.6094 30.9805 0.03125 51.5586 0 76.9492L0 349.621C0.03125 375.012 20.6094 395.59 46 395.621L326 395.621C351.395 395.59 371.973 375.012 372 349.621L372 76.9492C371.973 51.5586 351.395 30.9805 326 30.9492ZM12 109.953L360 109.953L360 76.9531C359.98 58.1875 344.77 42.9766 326 42.9531L275.078 42.9531L275.078 67.9063C275.078 71.2188 272.391 73.9063 269.078 73.9063C265.766 73.9063 263.078 71.2188 263.078 67.9063L263.078 42.9531L108.926 42.9531L108.926 67.9063C108.926 71.2188 106.238 73.9063 102.926 73.9063C99.6094 73.9063 96.9258 71.2188 96.9258 67.9063L96.9258 42.9531L46 42.9531C27.2305 42.9766 12.0234 58.1875 12 76.9531L12 109.953ZM326 383.621L46 383.621C27.2305 383.598 12.0234 368.391 12 349.621L12 121.953L360 121.953L360 349.621C359.98 368.391 344.77 383.598 326 383.621Z" id="Shape" fill="#000000" fill-rule="evenodd" stroke="none" />
  </g>
</svg>