<?xml version="1.0" encoding="utf-8"?>
<svg width="400px" height="401px" viewBox="0 0 400 401" version="1.1" xmlns:xlink="http://www.w3.org/1999/xlink" xmlns="http://www.w3.org/2000/svg">
  <desc>Created with Lunacy</desc>
  <g id="delete">
    <g id="edit">
      <path d="M389.076 130.314C383.051 130.33 378.17 135.21 378.154 141.237L378.154 345.39C378.102 363.464 363.464 378.102 345.383 378.161L54.6165 378.161C36.5421 378.102 21.8979 363.464 21.8466 345.39L21.8466 54.6165C21.8979 36.5421 36.5421 21.9013 54.6165 21.8466L258.763 21.8466C264.799 21.8466 269.686 16.9561 269.686 10.9233C269.686 4.89052 264.799 0 258.763 0L54.6165 0C24.456 0.0136798 0.0136798 24.4594 0 54.6165L0 345.39C0.0136798 375.547 24.456 399.993 54.6165 400.004L345.383 400.004C375.544 399.993 399.99 375.547 400 345.39L400 141.237C399.983 135.21 395.102 130.33 389.076 130.314L389.076 130.314L389.076 130.314Z" id="Shape" stroke="none" />
      <g id="trash" transform="translate(92.36324 61.33821)">
        <path d="M6.01615 0C2.69786 0.00940026 0.00940024 2.69788 0 6.01617L0 79.4134C0 82.7374 2.69599 85.4296 6.01615 85.4296C9.33819 85.4296 12.0323 82.7374 12.0323 79.4134L12.0323 6.01617C12.0229 2.69788 9.33632 0.00940026 6.01615 0L6.01615 0L6.01615 0Z" transform="translate(101.4906 153.7133)" id="Shape" stroke="none" />
        <path d="M6.01614 0C2.69786 0.00940026 0.00940022 2.69788 0 6.01617L0 79.4134C0 82.7374 2.69599 85.4296 6.01614 85.4296C9.33819 85.4296 12.0323 82.7374 12.0323 79.4134L12.0323 6.01617C12.0229 2.69788 9.3363 0.00940026 6.01614 0L6.01614 0L6.01614 0Z" transform="translate(139.9941 153.7133)" id="Shape" stroke="none" />
        <path d="M6.01614 0C2.69786 0.00940026 0.00940023 2.69788 0 6.01617L0 79.4134C0 82.7374 2.69599 85.4296 6.01614 85.4296C9.33818 85.4296 12.0323 82.7374 12.0323 79.4134L12.0323 6.01617C12.0229 2.69788 9.33631 0.00940026 6.01614 0L6.01614 0L6.01614 0Z" transform="translate(62.98713 153.7133)" id="Shape" stroke="none" />
        <path d="M187.883 30.8029L153.473 30.8029L153.473 13.2958C153.469 5.95225 147.516 0.00188006 140.175 0L74.8409 0C67.4973 0.00188006 61.5471 5.95225 61.5432 13.2958L61.5432 30.863L27.1326 30.863C13.8895 30.8668 2.58476 40.423 0.381338 53.4801C-1.82396 66.5371 5.72068 79.2781 18.2267 83.6249C18.1083 84.0555 18.0482 84.501 18.0464 84.9484L18.0464 248.469C18.0538 265.079 31.5168 278.542 48.1272 278.549L166.946 278.549C183.556 278.542 197.024 265.079 197.028 248.469L197.028 84.9484C197.032 84.501 196.971 84.0555 196.846 83.6249C209.37 79.2631 216.91 66.4976 214.692 53.4236C212.474 40.3498 201.143 30.7916 187.883 30.8029ZM73.6377 13.2958C73.6396 12.5983 74.2035 12.0361 74.8992 12.0324L140.236 12.0324C140.932 12.0361 141.496 12.5983 141.498 13.2958L141.498 30.863L73.6377 30.863L73.6377 13.2958ZM27.1326 73.0967L187.883 73.0967C196.224 73.0967 202.985 66.336 202.985 57.996C202.985 49.6561 196.224 42.8954 187.883 42.8954L27.1326 42.8954C18.7908 42.8954 12.0302 49.6561 12.0302 57.996C12.0302 66.336 18.7908 73.0967 27.1326 73.0967ZM48.1272 266.517L166.887 266.517C176.854 266.495 184.939 258.435 184.995 248.469L184.995 85.129L30.0787 85.129L30.0787 248.469C30.1087 258.423 38.1723 266.489 48.1272 266.517Z" id="Shape" fill-rule="evenodd" stroke="none" />
      </g>
    </g>
  </g>
</svg>