<?xml version="1.0" encoding="utf-8"?>
<svg width="400px" height="401px" viewBox="0 0 400 401" version="1.1" xmlns:xlink="http://www.w3.org/1999/xlink" xmlns="http://www.w3.org/2000/svg">
  <desc>Created with Lunacy</desc>
  <g id="done">
    <g id="edit">
      <g id="edit">
        <path d="M113.743 176.03L232.583 5.28772C239.295 -4.37496 252.503 -6.7747 262.146 0C271.786 6.71078 274.144 19.9413 267.454 29.5616L135.49 219.185C132.092 224.047 126.825 227.276 120.964 228.083C119.987 228.231 119.01 228.295 118.054 228.295C113.17 228.295 108.413 226.596 104.59 223.453L2.95207 140.014C-6.13729 132.602 -7.45409 119.202 0 110.134C7.45414 101.087 20.8121 99.7278 29.88 107.203L113.743 176.03L113.743 176.03L113.743 176.03Z" transform="translate(66.99997 67.5)" id="Shape"stroke="none" />
        <path d="M389.077 130.314C383.051 130.331 378.171 135.211 378.153 141.237L378.153 345.39C378.102 363.465 363.465 378.102 345.384 378.16L54.6165 378.16C36.5421 378.102 21.8979 363.465 21.8466 345.39L21.8466 54.6165C21.8979 36.5421 36.5421 21.9013 54.6165 21.8466L258.763 21.8466C264.799 21.8466 269.686 16.9561 269.686 10.9233C269.686 4.89052 264.799 0 258.763 0L54.6165 0C24.456 0.0136798 0.0136798 24.4594 0 54.6165L0 345.39C0.0136798 375.547 24.456 399.993 54.6165 400.003L345.384 400.003C375.544 399.993 399.99 375.547 400 345.39L400 141.237C399.983 135.211 395.103 130.331 389.077 130.314L389.077 130.314L389.077 130.314L389.077 130.314Z" id="Shape"stroke="none" />
      </g>
    </g>
  </g>
</svg>