<?xml version="1.0" encoding="utf-8"?>
<svg width="400px" height="401px" viewBox="0 0 400 401" version="1.1" xmlns:xlink="http://www.w3.org/1999/xlink" xmlns="http://www.w3.org/2000/svg">
  <desc>Created with Lunacy</desc>
  <g id="edit">
    <path d="M203.093 3.16747C201.038 1.11209 198.244 -0.0301732 195.337 0.000606309C192.44 0.0211262 189.667 1.15313 187.584 3.16747L31.1624 159.582L30.7281 160.023L30.5092 160.242C30.2938 160.57 29.9654 160.899 29.7466 161.224C29.7466 161.333 29.6371 161.333 29.6371 161.442C29.4183 161.767 29.3054 161.99 29.0899 162.315C28.9771 162.424 28.9771 162.537 28.8711 162.643C28.7616 162.971 28.6556 163.19 28.5427 163.518C28.5427 163.628 28.4333 163.628 28.4333 163.734L0.577877 247.734C-0.755901 251.643 0.259822 255.977 3.20439 258.877C5.26662 260.912 8.05387 262.05 10.954 262.044C12.1407 262.02 13.3206 261.838 14.4526 261.496L98.2343 233.535C98.3404 233.535 98.3404 233.535 98.4498 233.425C98.7952 233.326 99.1304 233.179 99.4313 232.991C99.5168 232.977 99.5955 232.94 99.6536 232.878C99.9785 232.663 100.416 232.444 100.745 232.222C101.069 232.003 101.398 231.674 101.726 231.459C101.839 231.353 101.945 231.353 101.945 231.24C102.054 231.131 102.273 231.021 102.386 230.806L258.907 74.2784C260.955 72.2332 262.104 69.4631 262.104 66.5766C262.104 63.6868 260.955 60.9132 258.907 58.8749L203.093 3.16747ZM54.3223 167.342L94.7392 207.755L235.75 66.7374L195.337 26.3239L54.3223 167.342ZM43.6179 187.547L74.5307 218.46L28.2144 233.86L43.6179 187.547Z" transform="translate(69.11928 69.76939)" id="Shape" fill-rule="evenodd" stroke="none" />
    <path d="M389.077 130.314C383.051 130.331 378.171 135.211 378.153 141.237L378.153 345.39C378.102 363.465 363.465 378.102 345.384 378.16L54.6165 378.16C36.5421 378.102 21.8979 363.465 21.8466 345.39L21.8466 54.6165C21.8979 36.5421 36.5421 21.9013 54.6165 21.8466L258.763 21.8466C264.799 21.8466 269.686 16.9561 269.686 10.9233C269.686 4.89052 264.799 0 258.763 0L54.6165 0C24.456 0.0136798 0.0136798 24.4594 0 54.6165L0 345.39C0.0136798 375.547 24.456 399.993 54.6165 400.003L345.384 400.003C375.544 399.993 399.99 375.547 400 345.39L400 141.237C399.983 135.211 395.103 130.331 389.077 130.314L389.077 130.314Z" id="Shape" stroke="none" />
  </g>
</svg>