<svg id="Capa_1" enable-background="new 0 0 492.001 492.001" height="512" viewBox="0 0 492.001 492.001" width="512" xmlns="http://www.w3.org/2000/svg"><path d="m72.947 301.773c-15.695-.001-28.419 12.723-28.42 28.418s12.723 28.419 28.418 28.42 28.419-12.723 28.42-28.418c0-.001 0-.001 0-.002-.018-15.688-12.73-28.401-28.418-28.418zm0 44.837c-9.068.001-16.419-7.35-16.42-16.418s7.35-16.419 16.418-16.42 16.419 7.35 16.42 16.418v.001c-.01 9.063-7.355 16.408-16.418 16.419z"/><path d="m359.44 367.019c-15.695 0-28.419 12.724-28.419 28.419s12.724 28.419 28.419 28.419 28.419-12.724 28.419-28.419c-.018-15.688-12.731-28.401-28.419-28.419zm0 44.837c-9.068 0-16.419-7.351-16.419-16.419s7.351-16.419 16.419-16.419 16.419 7.351 16.419 16.419v.001c-.01 9.063-7.356 16.408-16.419 16.418z"/><path d="m237.747 229.389c-2.343-2.343-6.142-2.344-8.485-.001 0 0 0 0-.001.001l-12.571 12.571-12.571-12.571c-2.343-2.343-6.143-2.343-8.486 0s-2.343 6.143 0 8.486l12.572 12.571-12.572 12.571c-2.343 2.343-2.343 6.142.001 8.486 2.343 2.343 6.142 2.343 8.485-.001l12.571-12.571 12.571 12.569c2.343 2.343 6.142 2.344 8.485.001s2.344-6.142.001-8.486l-12.572-12.571 12.572-12.571c2.054-2.282 1.801-5.975 0-8.484z"/><path d="m111.744 253.772v-28.407c0-.721-.036-1.45-.1-2.165-.318-3.299-3.249-5.715-6.547-5.398-3.299.318-5.715 3.249-5.398 6.548.032.335.049.676.049 1.015v28.407c0 3.314 2.686 6 6 6s6-2.686 6-6z"/><path d="m72.947 234.852c3.314 0 6-2.686 6-6v-3.487c.005-5.742 4.658-10.395 10.4-10.4.158 0 .315 0 .471.01 3.309.183 6.139-2.351 6.322-5.659.183-3.309-2.351-6.139-5.659-6.322-.039-.002-.078-.004-.117-.005-.337-.016-.676-.023-1.017-.023-12.366.013-22.387 10.034-22.4 22.4v3.487c0 3.312 2.686 5.999 6 5.999z"/><path d="m72.947 288.283c3.314 0 6-2.686 6-6v-30c0-3.314-2.686-6-6-6s-6 2.686-6 6v30c0 3.313 2.686 6 6 6z"/><path d="m132.294 290.872c-8.001-2.81-14.489-8.794-17.935-16.542-1.348-3.027-4.895-4.388-7.922-3.039-3.019 1.345-4.382 4.879-3.048 7.903 4.796 10.776 13.822 19.099 24.951 23.006 3.129 1.092 6.55-.559 7.642-3.688s-.559-6.55-3.688-7.642z"/><path d="m189.542 365.486c-2.841-2.308-4.488-5.774-4.482-9.434v-13.882c0-3.314-2.686-6-6-6s-6 2.686-6 6v13.882c-.011 7.265 3.257 14.148 8.894 18.731 2.568 2.095 6.349 1.712 8.444-.856s1.712-6.349-.856-8.444z"/><path d="m215.393 284.166c-3.314 0-6 2.686-6 6v30c0 3.314 2.686 6 6 6s6-2.686 6-6v-30c0-3.314-2.686-6-6-6z"/><path d="m215.393 337.6c-3.314 0-6 2.686-6 6v12.455c-.003 3.995-1.963 7.735-5.247 10.01-2.743 1.859-3.46 5.59-1.601 8.333s5.59 3.46 8.333 1.6c.035-.024.07-.048.105-.072 6.517-4.517 10.407-11.941 10.41-19.871v-12.455c0-3.314-2.686-6-6-6z"/><path d="m332.338 204.493c3.314 0 6-2.686 6-6s-2.686-6-6-6h-30c-3.314 0-6 2.686-6 6s2.686 6 6 6z"/><path d="m306.275 259.047c2.608-.001 4.916-1.686 5.712-4.169 1.411-4.425 5.528-7.425 10.172-7.412h8.974c3.314 0 6-2.686 6-6s-2.686-6-6-6h-8.974c-9.864-.026-18.606 6.347-21.6 15.746-1.013 3.155.723 6.534 3.878 7.548.594.191 1.213.288 1.836.287z"/><path d="m347.674 231.222c-2.023 2.625-1.535 6.392 1.089 8.415s6.392 1.535 8.415-1.089c.022-.029.044-.058.066-.087 2.988-3.931 4.599-8.736 4.584-13.673v-9.616c.005-4.377-1.26-8.662-3.644-12.334-1.804-2.78-5.52-3.571-8.299-1.767-2.78 1.804-3.571 5.52-1.767 8.299 1.12 1.727 1.714 3.742 1.711 5.8v9.616c.007 2.323-.75 4.585-2.155 6.436z"/><path d="m335.6 291.61c3.314.006 6.005-2.675 6.011-5.989.005-2.487-1.525-4.718-3.846-5.611-4.976-1.924-10.265-2.907-15.6-2.9-3.539-.001-6.848-1.753-8.837-4.681-1.865-2.739-5.597-3.448-8.336-1.583s-3.448 5.597-1.584 8.336c4.222 6.212 11.246 9.929 18.757 9.928 3.856-.007 7.679.703 11.276 2.093.689.267 1.42.405 2.159.407z"/><path d="m216.69 214.967c3.314 0 6-2.686 6-6v-30c0-3.314-2.686-6-6-6s-6 2.686-6 6v30c0 3.313 2.686 6 6 6z"/><path d="m250.918 167.233c2.922-1.561 4.026-5.195 2.466-8.118-5.896-11.054-19.637-15.235-30.691-9.339-1.514.808-2.932 1.784-4.225 2.912-2.491 2.185-2.739 5.976-.553 8.467 2.176 2.48 5.947 2.738 8.44.577 4.452-3.874 11.201-3.406 15.075 1.046.53.609.99 1.277 1.369 1.989 1.561 2.923 5.196 4.027 8.119 2.466z"/><path d="m365.44 320.394c.01-8.339-2.397-16.501-6.931-23.5-1.818-2.77-5.538-3.542-8.308-1.724-2.747 1.803-3.533 5.479-1.764 8.247 3.273 5.057 5.01 10.955 5 16.979v8.6c0 3.314 2.686 6 6 6s6-2.686 6-6z"/><path d="m359.44 346.422c-3.314 0-6 2.686-6 6v4.2c0 3.314 2.686 6 6 6s6-2.686 6-6v-4.2c0-3.314-2.686-6-6-6z"/><path d="m469.421 28.023c-28.565-28.705-74.992-28.819-103.697-.253-.085.084-.169.169-.253.253-11.875 11.973-19.534 27.482-21.823 44.189l-61.135-25.473c-.062-.026-.124-.043-.186-.067s-.151-.056-.227-.081c-.158-.053-.317-.1-.476-.137-.057-.014-.113-.03-.171-.042-.45-.097-.909-.141-1.369-.132-.038 0-.076 0-.114.006-.188.008-.374.024-.559.049-.061.008-.122.017-.183.028-.172.028-.341.064-.509.107-.056.015-.112.027-.167.043-.22.062-.436.137-.648.223h-.007l-134.797 56.164-134.792-56.161c-3.059-1.275-6.572.172-7.846 3.23-.305.731-.462 1.516-.462 2.308v370.177c0 2.422 1.456 4.607 3.692 5.539l137.1 57.126c.189.078.382.147.578.206l.054.013c.23.066.464.118.7.155.072.012.143.023.215.032.236.032.474.049.712.053h.054c.264-.003.528-.023.789-.06l.16-.023c.26-.041.517-.098.769-.171h.007c.195-.059.389-.128.58-.207l134.795-56.165 134.795 56.167c3.059 1.274 6.572-.173 7.846-3.232.305-.731.461-1.515.461-2.307v-279.917l52.868-70.676c11.312-15.082 16.874-33.238 15.663-51.106-1.199-18.783-9.162-36.496-22.417-49.858zm-320.321 276.453c.684.688 1.526 1.198 2.452 1.487 8.087 2.546 14.767 8.313 18.466 15.942 1.372 3.016 4.929 4.35 7.946 2.978 3.016-1.372 4.35-4.929 2.978-7.946-.039-.086-.08-.171-.123-.255-5.146-10.613-14.441-18.634-25.692-22.173-2.13-.663-4.451-.089-6.026 1.491v-182.6l125.1-52.126v130.749c-6.298-1.302-11.756-5.199-15.032-10.733-1.682-2.855-5.36-3.806-8.215-2.124s-3.806 5.36-2.125 8.215c5.441 9.189 14.789 15.382 25.372 16.809v214.264l-125.101 52.126zm-137.1-243.199 125.1 52.123v357.18l-125.1-52.126zm274.205 357.177v-357.177l56.748 23.646c.529 15.261 5.988 30.658 15.759 44.058l52.6 70.311v271.288zm180.365-296.661-49.124 65.672-49.081-65.613c-9.581-13.14-14.318-28.475-13.337-43.192 1.01-15.888 7.743-30.872 18.953-42.177 23.893-24.005 62.723-24.096 86.728-.202.068.067.135.135.202.202 11.212 11.31 17.945 26.3 18.954 42.193 1.018 15.017-3.702 30.324-13.295 43.117z"/><path d="m416.594 47.759c-19.144 0-34.664 15.52-34.664 34.664s15.52 34.664 34.664 34.664 34.664-15.52 34.664-34.664c-.02-19.136-15.528-34.644-34.664-34.664zm0 57.328c-12.511-.014-22.65-10.153-22.664-22.664 0-12.517 10.147-22.664 22.664-22.664s22.664 10.147 22.664 22.664c-.014 12.511-10.153 22.649-22.664 22.664z"/></svg>