<?xml version="1.0" encoding="utf-8"?>
<svg width="342px" height="512px" viewBox="0 0 342 512" version="1.1" xmlns:xlink="http://www.w3.org/1999/xlink" xmlns="http://www.w3.org/2000/svg">
  <desc>Created with Lunacy</desc>
  <g id="pin-next">
    <g id="Group">
      <g id="Group">
        <g id="Group">
          <path d="M0 170.641C0 76.553 76.561 0 170.666 0C264.772 0 341.333 76.553 341.334 170.641C341.334 216.542 327.331 244.565 307.943 283.349C304.931 289.374 301.773 295.68 298.505 302.387C250.752 400.452 178.449 507.17 177.724 508.237C176.137 510.576 173.491 511.975 170.667 511.975C167.843 511.975 165.197 510.575 163.61 508.237C162.884 507.17 90.582 400.452 42.829 302.387C39.561 295.68 36.403 289.374 33.391 283.349C14.003 244.565 0 216.542 0 170.641ZM68.266 170.641C68.266 227.106 114.201 273.041 170.666 273.041C227.131 273.041 273.066 227.106 273.066 170.641C273.066 114.176 227.131 68.241 170.666 68.241C114.201 68.241 68.266 114.176 68.266 170.641Z" id="Shape" fill-rule="evenodd" stroke="none" />
          <path d="M85.333 0C38.28 0 0 38.281 0 85.333C0 132.385 38.281 170.666 85.333 170.666C132.385 170.666 170.666 132.385 170.666 85.333C170.666 38.281 132.386 0 85.333 0ZM130.755 39.8274L76.9843 117.082L39.0391 85.9402C34.9362 82.5579 28.8922 83.1729 25.5195 87.2662C22.1468 91.3692 22.7426 97.4323 26.8552 100.786L72.8429 138.539C74.5724 139.961 76.7248 140.73 78.9348 140.73C79.3672 140.73 79.8092 140.701 80.2512 140.634C82.9033 140.269 85.2862 138.808 86.8236 136.608L146.533 50.8104C149.56 46.4576 148.493 40.4713 144.131 37.4349C139.768 34.3696 133.792 35.4554 130.755 39.8274Z" transform="translate(85.987 85.321)" id="Shape" fill-rule="evenodd" stroke="none" />
        </g>
      </g>
    </g>
  </g>
</svg>