<?xml version="1.0" encoding="utf-8"?>
<svg width="342px" height="512px" viewBox="0 0 342 512" version="1.1" xmlns:xlink="http://www.w3.org/1999/xlink" xmlns="http://www.w3.org/2000/svg">
  <desc>Created with Lunacy</desc>
  <g id="pin-next">
    <g id="Group">
      <g id="Group">
        <g id="Group">
          <path d="M0 170.641C0 76.553 76.561 0 170.666 0C264.772 0 341.333 76.553 341.334 170.641C341.334 216.542 327.331 244.565 307.943 283.349C304.931 289.374 301.773 295.68 298.505 302.387C250.752 400.452 178.449 507.17 177.724 508.237C176.137 510.576 173.491 511.975 170.667 511.975C167.843 511.975 165.197 510.575 163.61 508.237C162.884 507.17 90.582 400.452 42.829 302.387C39.561 295.68 36.403 289.374 33.391 283.349C14.003 244.565 0 216.542 0 170.641ZM68.266 170.641C68.266 227.106 114.201 273.041 170.666 273.041C227.131 273.041 273.066 227.106 273.066 170.641C273.066 114.176 227.131 68.241 170.666 68.241C114.201 68.241 68.266 114.176 68.266 170.641Z" id="Shape" fill-rule="evenodd" stroke="none" />
          <path d="M85.333 0C38.28 0 0 38.281 0 85.333C0 132.385 38.281 170.666 85.333 170.666C132.385 170.666 170.666 132.385 170.666 85.333C170.666 38.281 132.386 0 85.333 0ZM25.0015 84.9999C25.0015 76.7156 31.7172 69.9999 40.0015 69.9999C48.2857 69.9999 55.0015 76.7156 55.0015 84.9999C55.0015 93.2842 48.2857 99.9999 40.0015 99.9999C31.7172 99.9999 25.0015 93.2842 25.0015 84.9999ZM70.0019 84.9999C70.002 76.7156 76.7177 69.9999 85.002 69.9999C93.2862 69.9999 100.002 76.7156 100.002 84.9999C100.002 93.2842 93.2862 99.9999 85.0019 99.9999C76.7177 99.9999 70.0019 93.2842 70.0019 84.9999ZM115.002 84.9999C115.002 76.7156 121.718 69.9999 130.002 69.9999C138.286 69.9999 145.002 76.7156 145.002 84.9999C145.002 93.2842 138.286 99.9999 130.002 99.9999C121.718 99.9999 115.002 93.2842 115.002 84.9999Z" transform="translate(85.987 87.987)" id="Shape" fill-rule="evenodd" stroke="none" />
        </g>
      </g>
    </g>
  </g>
</svg>