<?xml version="1.0" encoding="utf-8"?>
<svg width="400px" height="401px" viewBox="0 0 400 401" version="1.1" xmlns:xlink="http://www.w3.org/1999/xlink" xmlns="http://www.w3.org/2000/svg">
  <desc>Created with Lunacy</desc>
  <g id="delete">
    <g id="delete">
      <g id="edit">
        <path d="M389.076 130.314C383.051 130.33 378.17 135.21 378.154 141.237L378.154 345.39C378.102 363.464 363.464 378.102 345.383 378.161L54.6165 378.161C36.5421 378.102 21.8979 363.464 21.8466 345.39L21.8466 54.6165C21.8979 36.5421 36.5421 21.9013 54.6165 21.8466L258.763 21.8466C264.799 21.8466 269.686 16.9561 269.686 10.9233C269.686 4.89052 264.799 0 258.763 0L54.6165 0C24.456 0.0136798 0.0136798 24.4594 0 54.6165L0 345.39C0.0136798 375.547 24.456 399.993 54.6165 400.004L345.383 400.004C375.544 399.993 399.99 375.547 400 345.39L400 141.237C399.983 135.21 395.102 130.33 389.076 130.314L389.076 130.314L389.076 130.314L389.076 130.314Z" id="Shape" stroke="none" />
      </g>
    </g>
  </g>
</svg>