<svg height="395pt" viewBox="-11 0 395 395.62" width="395pt" xmlns="http://www.w3.org/2000/svg"><path d="m326.308594 30.949219h-50.921875v-24.949219c0-3.3125-2.6875-6-6-6s-6 2.6875-6 6v24.949219h-154.152344v-24.949219c0-3.3125-2.6875-6-6-6-3.316406 0-6 2.6875-6 6v24.949219h-50.925781c-25.390625.03125-45.96875 20.609375-46 46v272.671875c.03125 25.390625 20.609375 45.96875 46 46h280c25.394531-.03125 45.972656-20.609375 46-46v-272.671875c-.027344-25.390625-20.605469-45.96875-46-46zm0 352.671875h-280c-18.769532-.023438-33.976563-15.230469-34-34v-227.667969h348v227.667969c-.019532 18.769531-15.230469 33.976562-34 34zm34-273.667969h-348v-33c.023437-18.765625 15.230468-33.976563 34-34h50.925781v24.953125c0 3.3125 2.683594 6 6 6 3.3125 0 6-2.6875 6-6v-24.953125h154.152344v24.953125c0 3.3125 2.6875 6 6 6s6-2.6875 6-6v-24.953125h50.921875c18.769531.023437 33.980468 15.234375 34 34zm0 0"/><path d="m143.910156 217.113281c0-18.648437-23.113281-15.550781-23.113281-24.480469 0-3.457031 2.953125-5.542968 8.136719-5.542968 6.046875 0 7.703125 2.734375 9.9375 2.734375 2.589844 0 3.742187-3.3125 3.742187-4.96875 0-4.75-9.433593-5.757813-13.679687-5.757813-8.28125 0-17.5 3.671875-17.5 14.398438 0 17.066406 23.113281 13.753906 23.113281 24.554687 0 4.320313-3.746094 6.265625-8.066406 6.265625-7.34375 0-9.289063-5.546875-12.238281-5.546875-2.234376 0-4.101563 3.023438-4.101563 5.042969 0 4.175781 7.199219 8.925781 16.632813 8.925781 9.9375.003907 17.136718-5.328125 17.136718-15.625zm0 0"/><path d="m155.710938 230.21875 2.734374-9.574219h16.492188l2.734375 9.574219c.359375 1.371094 1.585937 1.875 3.167969 1.875 2.519531 0 5.902344-1.65625 5.902344-3.890625-.019532-.242187-.070313-.484375-.144532-.71875l-13.902344-45.292969c-.644531-2.160156-3.308593-3.167968-6.046874-3.167968-2.664063 0-5.328126 1.007812-5.976563 3.167968l-13.898437 45.292969c-.070313.234375-.117188.476563-.144532.71875 0 2.300781 3.382813 3.890625 5.902344 3.890625 1.59375 0 2.820312-.503906 3.179688-1.875zm10.945312-39.027344 6.265625 22.101563h-12.53125zm0 0"/><path d="m219.511719 179.457031c-1.585938 0-2.8125.5-3.167969 1.871094l-10.945312 39.027344-11.019532-39.027344c-.359375-1.367187-1.582031-1.871094-3.167968-1.871094-2.519532 0-5.898438 1.582031-5.898438 3.886719.023438.242188.074219.484375.140625.71875l13.902344 45.292969c.71875 2.160156 3.3125 3.167969 6.046875 3.167969 2.738281 0 5.402344-1.007813 6.050781-3.167969l13.824219-45.292969c.074218-.230469.125-.472656.144531-.71875-.011719-2.234375-3.398437-3.886719-5.910156-3.886719zm0 0"/><path d="m260.109375 187.664062c1.875 0 2.953125-1.945312 2.953125-4.175781 0-1.945312-.933594-4.03125-2.953125-4.03125h-25.632813c-2.085937 0-4.097656 1.007813-4.097656 2.949219v46.734375c0 1.945313 2.015625 2.953125 4.097656 2.953125h25.632813c2.019531 0 2.953125-2.089844 2.953125-4.035156 0-2.230469-1.078125-4.175782-2.953125-4.175782h-20.375v-14.472656h10.945313c2.015624 0 2.953124-1.945312 2.953124-3.601562 0-1.941406-1.082031-3.742188-2.953124-3.742188h-10.945313v-14.402344zm0 0"/><path d="m129.9375 265.855469h-12.746094c-2.449218 0-4.101562 1.367187-4.101562 2.882812v46.871094c0 1.511719 1.65625 2.878906 4.101562 2.878906h12.746094c9.5 0 16.921875-4.464843 16.921875-16.488281v-19.65625c0-12.023438-7.417969-16.488281-16.921875-16.488281zm7.558594 36.148437c0 5.617188-2.808594 8.28125-7.558594 8.28125h-7.492188v-36.21875h7.492188c4.75 0 7.558594 2.664063 7.558594 8.277344zm0 0"/><path d="m177.238281 268.59375c-.648437-2.160156-3.3125-3.167969-6.046875-3.167969-2.664062 0-5.328125 1.007813-5.976562 3.167969l-13.898438 45.289062c-.070312.238282-.117187.476563-.144531.722657 0 2.304687 3.382813 3.886719 5.902344 3.886719 1.585937 0 2.808593-.5 3.167969-1.871094l2.738281-9.578125h16.488281l2.738281 9.578125c.359375 1.367187 1.582031 1.871094 3.167969 1.871094 2.519531 0 5.902344-1.65625 5.902344-3.886719-.019532-.246094-.066406-.488281-.140625-.722657zm-12.3125 31.105469 6.265625-22.105469 6.265625 22.105469zm0 0"/><path d="m221.953125 265.855469h-30.460937c-2.015626 0-2.949219 2.160156-2.949219 4.175781 0 2.300781 1.078125 4.25 2.949219 4.25h10.585937v41.257812c0 1.945313 2.300781 2.953126 4.679687 2.953126 2.300782 0 4.683594-1.007813 4.683594-2.953126v-41.257812h10.511719c1.871094 0 2.953125-2.015625 2.953125-4.25.003906-2.015625-.9375-4.175781-2.953125-4.175781zm0 0"/><path d="m259.753906 274.066406c1.871094 0 2.949219-1.945312 2.949219-4.179687 0-1.941407-.933594-4.03125-2.949219-4.03125h-25.636718c-2.085938 0-4.101563 1.007812-4.101563 2.953125v46.730468c0 1.945313 2.015625 2.953126 4.101563 2.953126h25.636718c2.015625 0 2.949219-2.085938 2.949219-4.03125 0-2.234376-1.078125-4.175782-2.949219-4.175782h-20.378906v-14.476562h10.945312c2.015626 0 2.953126-1.941406 2.953126-3.597656 0-1.945313-1.082032-3.746094-2.953126-3.746094h-10.945312v-14.398438zm0 0"/></svg>