<svg height="372pt" viewBox="0 0 372 372" width="372pt" xmlns="http://www.w3.org/2000/svg"><path d="m6 103.070312c3.3125 0 6-2.6875 6-6v-85.070312h85.070312c3.3125 0 6-2.6875 6-6s-2.6875-6-6-6h-91.070312c-3.3125 0-6 2.6875-6 6v91.070312c0 3.3125 2.6875 6 6 6zm0 0"/><path d="m6 372h91.070312c3.3125 0 6-2.6875 6-6s-2.6875-6-6-6h-85.070312v-85.070312c0-3.3125-2.6875-6-6-6s-6 2.6875-6 6v91.070312c0 3.3125 2.6875 6 6 6zm0 0"/><path d="m366 268.929688c-3.3125 0-6 2.6875-6 6v85.070312h-85.070312c-3.3125 0-6 2.6875-6 6s2.6875 6 6 6h91.070312c3.3125 0 6-2.6875 6-6v-91.070312c0-3.3125-2.6875-6-6-6zm0 0"/><path d="m274.929688 12h85.070312v85.070312c0 3.3125 2.6875 6 6 6s6-2.6875 6-6v-91.070312c0-3.3125-2.6875-6-6-6h-91.070312c-3.3125 0-6 2.6875-6 6s2.6875 6 6 6zm0 0"/><path d="m186 178.109375c33.996094 0 61.554688-27.558594 61.554688-61.554687 0-33.996094-27.558594-61.554688-61.554688-61.554688s-61.554688 27.558594-61.554688 61.554688c.039063 33.980468 27.574219 61.519531 61.554688 61.554687zm0-111.109375c27.367188 0 49.554688 22.1875 49.554688 49.554688 0 27.371093-22.1875 49.558593-49.554688 49.558593s-49.554688-22.1875-49.554688-49.558593c.03125-27.355469 22.199219-49.523438 49.554688-49.554688zm0 0"/><path d="m86 317h200c3.3125 0 6-2.6875 6-6 0-58.542969-47.457031-106-106-106s-106 47.457031-106 106c0 3.3125 2.6875 6 6 6zm100-100c49.5625.058594 90.585938 38.542969 93.8125 88h-187.625c3.226562-49.457031 44.25-87.941406 93.8125-88zm0 0"/></svg>